<mxfile host="app.diagrams.net" agent="Mozilla/5.0 (Windows NT 10.0; Win64; x64) AppleWebKit/537.36 (KHTML, like Gecko) Chrome/137.0.0.0 Safari/537.36" version="27.1.6">
  <diagram name="Page-1" id="NIy2B8CsgUYnzLOf6SIZ">
    <mxGraphModel dx="1188" dy="654" grid="1" gridSize="10" guides="1" tooltips="1" connect="1" arrows="1" fold="1" page="1" pageScale="1" pageWidth="850" pageHeight="1100" math="0" shadow="0">
      <root>
        <mxCell id="0" />
        <mxCell id="1" parent="0" />
        <mxCell id="aJZUO4CmAAwaXyu75yhE-1" value="&lt;div&gt;&lt;font style=&quot;font-size: 9px;&quot;&gt;Postgres&lt;/font&gt;&lt;/div&gt;&lt;font style=&quot;font-size: 9px;&quot;&gt;DB&lt;/font&gt;" style="shape=cylinder3;whiteSpace=wrap;html=1;boundedLbl=1;backgroundOutline=1;size=15;fillColor=#dae8fc;strokeColor=#6c8ebf;" parent="1" vertex="1">
          <mxGeometry x="375" y="190" width="50" height="70" as="geometry" />
        </mxCell>
        <mxCell id="aJZUO4CmAAwaXyu75yhE-30" style="edgeStyle=orthogonalEdgeStyle;rounded=0;orthogonalLoop=1;jettySize=auto;html=1;exitX=0.5;exitY=1;exitDx=0;exitDy=0;entryX=0;entryY=0.5;entryDx=0;entryDy=0;" parent="1" source="aJZUO4CmAAwaXyu75yhE-2" target="aJZUO4CmAAwaXyu75yhE-20" edge="1">
          <mxGeometry relative="1" as="geometry" />
        </mxCell>
        <mxCell id="aJZUO4CmAAwaXyu75yhE-2" value="Client" style="whiteSpace=wrap;html=1;aspect=fixed;fillColor=#dae8fc;strokeColor=#6c8ebf;" parent="1" vertex="1">
          <mxGeometry x="230" y="125" width="50" height="50" as="geometry" />
        </mxCell>
        <mxCell id="aJZUO4CmAAwaXyu75yhE-19" style="edgeStyle=orthogonalEdgeStyle;rounded=0;orthogonalLoop=1;jettySize=auto;html=1;exitX=0;exitY=0.5;exitDx=0;exitDy=0;" parent="1" source="aJZUO4CmAAwaXyu75yhE-15" edge="1">
          <mxGeometry relative="1" as="geometry">
            <mxPoint x="410.1428571428571" y="149.8571428571429" as="targetPoint" />
          </mxGeometry>
        </mxCell>
        <mxCell id="aJZUO4CmAAwaXyu75yhE-15" value="&lt;div&gt;&lt;font style=&quot;font-size: 9px;&quot;&gt;Kafka&lt;/font&gt;&lt;/div&gt;&lt;font style=&quot;font-size: 9px;&quot;&gt;Consumer&lt;/font&gt;" style="rhombus;whiteSpace=wrap;html=1;fillColor=#d5e8d4;strokeColor=#82b366;" parent="1" vertex="1">
          <mxGeometry x="410" y="115" width="75" height="70" as="geometry" />
        </mxCell>
        <mxCell id="aJZUO4CmAAwaXyu75yhE-16" value="" style="endArrow=block;startArrow=classic;html=1;rounded=0;exitX=1;exitY=0.5;exitDx=0;exitDy=0;entryX=0;entryY=0.5;entryDx=0;entryDy=0;endFill=0;" parent="1" source="aJZUO4CmAAwaXyu75yhE-2" target="aJZUO4CmAAwaXyu75yhE-15" edge="1">
          <mxGeometry width="50" height="50" relative="1" as="geometry">
            <mxPoint x="430" y="240" as="sourcePoint" />
            <mxPoint x="480" y="190" as="targetPoint" />
          </mxGeometry>
        </mxCell>
        <mxCell id="aJZUO4CmAAwaXyu75yhE-17" value="&lt;font style=&quot;font-size: 9px;&quot;&gt;Socket&lt;/font&gt;" style="rounded=1;whiteSpace=wrap;html=1;fillColor=#d5e8d4;strokeColor=#82b366;" parent="1" vertex="1">
          <mxGeometry x="340" y="140" width="35" height="20" as="geometry" />
        </mxCell>
        <mxCell id="aJZUO4CmAAwaXyu75yhE-33" style="edgeStyle=orthogonalEdgeStyle;rounded=0;orthogonalLoop=1;jettySize=auto;html=1;exitX=1;exitY=0.5;exitDx=0;exitDy=0;entryX=0;entryY=0.5;entryDx=0;entryDy=0;" parent="1" source="aJZUO4CmAAwaXyu75yhE-20" target="aJZUO4CmAAwaXyu75yhE-23" edge="1">
          <mxGeometry relative="1" as="geometry" />
        </mxCell>
        <mxCell id="aJZUO4CmAAwaXyu75yhE-20" value="Server" style="whiteSpace=wrap;html=1;aspect=fixed;fillColor=#dae8fc;strokeColor=#6c8ebf;" parent="1" vertex="1">
          <mxGeometry x="325" y="285" width="50" height="50" as="geometry" />
        </mxCell>
        <mxCell id="aJZUO4CmAAwaXyu75yhE-29" style="edgeStyle=orthogonalEdgeStyle;rounded=0;orthogonalLoop=1;jettySize=auto;html=1;exitX=0.5;exitY=0;exitDx=0;exitDy=0;entryX=1;entryY=0.5;entryDx=0;entryDy=0;" parent="1" source="aJZUO4CmAAwaXyu75yhE-23" target="aJZUO4CmAAwaXyu75yhE-15" edge="1">
          <mxGeometry relative="1" as="geometry" />
        </mxCell>
        <mxCell id="aJZUO4CmAAwaXyu75yhE-23" value="Kafka" style="icon;html=1;image=https://upload.wikimedia.org/wikipedia/commons/0/01/Apache_Kafka_logo.svg;arcSize=35;imageAspect=1;fontSize=11;spacingTop=-4;fillColor=#d5e8d4;strokeColor=#82b366;imageWidth=23;imageHeight=34;" parent="1" vertex="1">
          <mxGeometry x="520" y="281" width="60" height="59" as="geometry" />
        </mxCell>
        <mxCell id="aJZUO4CmAAwaXyu75yhE-34" value="&lt;font style=&quot;font-size: 9px;&quot;&gt;Producer&lt;/font&gt;" style="rounded=1;whiteSpace=wrap;html=1;fillColor=#d5e8d4;strokeColor=#82b366;" parent="1" vertex="1">
          <mxGeometry x="417.5" y="300" width="50" height="20" as="geometry" />
        </mxCell>
        <mxCell id="aJZUO4CmAAwaXyu75yhE-36" style="edgeStyle=orthogonalEdgeStyle;rounded=0;orthogonalLoop=1;jettySize=auto;html=1;exitX=0.5;exitY=1;exitDx=0;exitDy=0;entryX=1.017;entryY=0.553;entryDx=0;entryDy=0;entryPerimeter=0;" parent="1" source="aJZUO4CmAAwaXyu75yhE-15" target="aJZUO4CmAAwaXyu75yhE-1" edge="1">
          <mxGeometry relative="1" as="geometry" />
        </mxCell>
        <mxCell id="aJZUO4CmAAwaXyu75yhE-37" style="edgeStyle=orthogonalEdgeStyle;rounded=0;orthogonalLoop=1;jettySize=auto;html=1;exitX=0.5;exitY=0;exitDx=0;exitDy=0;entryX=-0.005;entryY=0.56;entryDx=0;entryDy=0;entryPerimeter=0;" parent="1" source="aJZUO4CmAAwaXyu75yhE-20" target="aJZUO4CmAAwaXyu75yhE-1" edge="1">
          <mxGeometry relative="1" as="geometry" />
        </mxCell>
        <mxCell id="aJZUO4CmAAwaXyu75yhE-38" value="&lt;font style=&quot;font-size: 6px;&quot;&gt;Permissions&lt;/font&gt;&lt;div&gt;&lt;font style=&quot;font-size: 6px;&quot;&gt;Store unread notifications&lt;/font&gt;&lt;/div&gt;" style="text;html=1;align=center;verticalAlign=middle;whiteSpace=wrap;rounded=0;" parent="1" vertex="1">
          <mxGeometry x="443" y="190" width="82.5" height="30" as="geometry" />
        </mxCell>
        <mxCell id="aJZUO4CmAAwaXyu75yhE-39" value="&lt;span style=&quot;font-size: 6px;&quot;&gt;App actions&lt;/span&gt;&lt;div&gt;&lt;span style=&quot;font-size: 6px;&quot;&gt;Fetch unread notifications&lt;/span&gt;&lt;/div&gt;" style="text;html=1;align=center;verticalAlign=middle;whiteSpace=wrap;rounded=0;" parent="1" vertex="1">
          <mxGeometry x="271" y="240" width="82.5" height="30" as="geometry" />
        </mxCell>
        <mxCell id="aJZUO4CmAAwaXyu75yhE-40" value="&lt;span style=&quot;font-size: 6px;&quot;&gt;Event&lt;/span&gt;" style="text;html=1;align=center;verticalAlign=middle;whiteSpace=wrap;rounded=0;" parent="1" vertex="1">
          <mxGeometry x="472.5" y="292" width="37.5" height="20" as="geometry" />
        </mxCell>
        <mxCell id="aJZUO4CmAAwaXyu75yhE-41" value="&lt;span style=&quot;font-size: 6px;&quot;&gt;Notification&lt;/span&gt;" style="text;html=1;align=center;verticalAlign=middle;whiteSpace=wrap;rounded=0;" parent="1" vertex="1">
          <mxGeometry x="295" y="133" width="37.5" height="20" as="geometry" />
        </mxCell>
        <mxCell id="aJZUO4CmAAwaXyu75yhE-42" value="" style="rounded=1;whiteSpace=wrap;html=1;fillColor=#dae8fc;strokeColor=#6c8ebf;" parent="1" vertex="1">
          <mxGeometry x="120" y="90" width="30" height="10" as="geometry" />
        </mxCell>
        <mxCell id="aJZUO4CmAAwaXyu75yhE-43" value="" style="rounded=1;whiteSpace=wrap;html=1;fillColor=#d5e8d4;strokeColor=#82b366;" parent="1" vertex="1">
          <mxGeometry x="120" y="105" width="30" height="10" as="geometry" />
        </mxCell>
        <mxCell id="aJZUO4CmAAwaXyu75yhE-44" value="&lt;font style=&quot;font-size: 9px;&quot;&gt;Existing - made changes&lt;/font&gt;" style="text;html=1;align=center;verticalAlign=middle;whiteSpace=wrap;rounded=0;" parent="1" vertex="1">
          <mxGeometry x="124" y="80" width="160" height="30" as="geometry" />
        </mxCell>
        <mxCell id="aJZUO4CmAAwaXyu75yhE-45" value="&lt;font style=&quot;font-size: 9px;&quot;&gt;Completely new&lt;/font&gt;" style="text;html=1;align=center;verticalAlign=middle;whiteSpace=wrap;rounded=0;" parent="1" vertex="1">
          <mxGeometry x="107" y="94" width="160" height="30" as="geometry" />
        </mxCell>
        <mxCell id="J0Se5QBbOpBC9-8f7PyO-1" value="NotificationTypes" style="swimlane;fontStyle=0;childLayout=stackLayout;horizontal=1;startSize=30;horizontalStack=0;resizeParent=1;resizeParentMax=0;resizeLast=0;collapsible=1;marginBottom=0;whiteSpace=wrap;html=1;" vertex="1" parent="1">
          <mxGeometry x="124" y="410" width="140" height="180" as="geometry" />
        </mxCell>
        <mxCell id="J0Se5QBbOpBC9-8f7PyO-2" value="id - [PK] integer" style="text;strokeColor=none;fillColor=none;align=left;verticalAlign=middle;spacingLeft=4;spacingRight=4;overflow=hidden;points=[[0,0.5],[1,0.5]];portConstraint=eastwest;rotatable=0;whiteSpace=wrap;html=1;" vertex="1" parent="J0Se5QBbOpBC9-8f7PyO-1">
          <mxGeometry y="30" width="140" height="30" as="geometry" />
        </mxCell>
        <mxCell id="J0Se5QBbOpBC9-8f7PyO-3" value="description - string" style="text;strokeColor=none;fillColor=none;align=left;verticalAlign=middle;spacingLeft=4;spacingRight=4;overflow=hidden;points=[[0,0.5],[1,0.5]];portConstraint=eastwest;rotatable=0;whiteSpace=wrap;html=1;" vertex="1" parent="J0Se5QBbOpBC9-8f7PyO-1">
          <mxGeometry y="60" width="140" height="30" as="geometry" />
        </mxCell>
        <mxCell id="J0Se5QBbOpBC9-8f7PyO-4" value="permissions - ?" style="text;strokeColor=none;fillColor=none;align=left;verticalAlign=middle;spacingLeft=4;spacingRight=4;overflow=hidden;points=[[0,0.5],[1,0.5]];portConstraint=eastwest;rotatable=0;whiteSpace=wrap;html=1;" vertex="1" parent="J0Se5QBbOpBC9-8f7PyO-1">
          <mxGeometry y="90" width="140" height="30" as="geometry" />
        </mxCell>
        <mxCell id="J0Se5QBbOpBC9-8f7PyO-5" value="filters - ?" style="text;strokeColor=none;fillColor=none;align=left;verticalAlign=middle;spacingLeft=4;spacingRight=4;overflow=hidden;points=[[0,0.5],[1,0.5]];portConstraint=eastwest;rotatable=0;whiteSpace=wrap;html=1;" vertex="1" parent="J0Se5QBbOpBC9-8f7PyO-1">
          <mxGeometry y="120" width="140" height="30" as="geometry" />
        </mxCell>
        <mxCell id="J0Se5QBbOpBC9-8f7PyO-6" value="format - string" style="text;strokeColor=none;fillColor=none;align=left;verticalAlign=middle;spacingLeft=4;spacingRight=4;overflow=hidden;points=[[0,0.5],[1,0.5]];portConstraint=eastwest;rotatable=0;whiteSpace=wrap;html=1;" vertex="1" parent="J0Se5QBbOpBC9-8f7PyO-1">
          <mxGeometry y="150" width="140" height="30" as="geometry" />
        </mxCell>
        <mxCell id="J0Se5QBbOpBC9-8f7PyO-7" value="NotificationsLog" style="swimlane;fontStyle=0;childLayout=stackLayout;horizontal=1;startSize=30;horizontalStack=0;resizeParent=1;resizeParentMax=0;resizeLast=0;collapsible=1;marginBottom=0;whiteSpace=wrap;html=1;" vertex="1" parent="1">
          <mxGeometry x="335.5" y="420" width="190" height="180" as="geometry" />
        </mxCell>
        <mxCell id="J0Se5QBbOpBC9-8f7PyO-8" value="id - [PK] integer" style="text;strokeColor=none;fillColor=none;align=left;verticalAlign=middle;spacingLeft=4;spacingRight=4;overflow=hidden;points=[[0,0.5],[1,0.5]];portConstraint=eastwest;rotatable=0;whiteSpace=wrap;html=1;" vertex="1" parent="J0Se5QBbOpBC9-8f7PyO-7">
          <mxGeometry y="30" width="190" height="30" as="geometry" />
        </mxCell>
        <mxCell id="J0Se5QBbOpBC9-8f7PyO-9" value="notifciation_type_id - integer" style="text;strokeColor=none;fillColor=none;align=left;verticalAlign=middle;spacingLeft=4;spacingRight=4;overflow=hidden;points=[[0,0.5],[1,0.5]];portConstraint=eastwest;rotatable=0;whiteSpace=wrap;html=1;" vertex="1" parent="J0Se5QBbOpBC9-8f7PyO-7">
          <mxGeometry y="60" width="190" height="30" as="geometry" />
        </mxCell>
        <mxCell id="J0Se5QBbOpBC9-8f7PyO-11" value="date - Date" style="text;strokeColor=none;fillColor=none;align=left;verticalAlign=middle;spacingLeft=4;spacingRight=4;overflow=hidden;points=[[0,0.5],[1,0.5]];portConstraint=eastwest;rotatable=0;whiteSpace=wrap;html=1;" vertex="1" parent="J0Se5QBbOpBC9-8f7PyO-7">
          <mxGeometry y="90" width="190" height="30" as="geometry" />
        </mxCell>
        <mxCell id="J0Se5QBbOpBC9-8f7PyO-32" value="user_id - string" style="text;strokeColor=none;fillColor=none;align=left;verticalAlign=middle;spacingLeft=4;spacingRight=4;overflow=hidden;points=[[0,0.5],[1,0.5]];portConstraint=eastwest;rotatable=0;whiteSpace=wrap;html=1;" vertex="1" parent="J0Se5QBbOpBC9-8f7PyO-7">
          <mxGeometry y="120" width="190" height="30" as="geometry" />
        </mxCell>
        <mxCell id="J0Se5QBbOpBC9-8f7PyO-33" value="formatted_message - string" style="text;strokeColor=none;fillColor=none;align=left;verticalAlign=middle;spacingLeft=4;spacingRight=4;overflow=hidden;points=[[0,0.5],[1,0.5]];portConstraint=eastwest;rotatable=0;whiteSpace=wrap;html=1;" vertex="1" parent="J0Se5QBbOpBC9-8f7PyO-7">
          <mxGeometry y="150" width="190" height="30" as="geometry" />
        </mxCell>
        <mxCell id="J0Se5QBbOpBC9-8f7PyO-13" value="UsersLog" style="swimlane;fontStyle=0;childLayout=stackLayout;horizontal=1;startSize=30;horizontalStack=0;resizeParent=1;resizeParentMax=0;resizeLast=0;collapsible=1;marginBottom=0;whiteSpace=wrap;html=1;" vertex="1" parent="1">
          <mxGeometry x="580" y="410" width="160" height="90" as="geometry" />
        </mxCell>
        <mxCell id="J0Se5QBbOpBC9-8f7PyO-14" value="user_id - [PK] string" style="text;strokeColor=none;fillColor=none;align=left;verticalAlign=middle;spacingLeft=4;spacingRight=4;overflow=hidden;points=[[0,0.5],[1,0.5]];portConstraint=eastwest;rotatable=0;whiteSpace=wrap;html=1;" vertex="1" parent="J0Se5QBbOpBC9-8f7PyO-13">
          <mxGeometry y="30" width="160" height="30" as="geometry" />
        </mxCell>
        <mxCell id="J0Se5QBbOpBC9-8f7PyO-15" value="last_update_date - Date" style="text;strokeColor=none;fillColor=none;align=left;verticalAlign=middle;spacingLeft=4;spacingRight=4;overflow=hidden;points=[[0,0.5],[1,0.5]];portConstraint=eastwest;rotatable=0;whiteSpace=wrap;html=1;" vertex="1" parent="J0Se5QBbOpBC9-8f7PyO-13">
          <mxGeometry y="60" width="160" height="30" as="geometry" />
        </mxCell>
        <mxCell id="J0Se5QBbOpBC9-8f7PyO-19" value="Users_notifications" style="swimlane;fontStyle=0;childLayout=stackLayout;horizontal=1;startSize=30;horizontalStack=0;resizeParent=1;resizeParentMax=0;resizeLast=0;collapsible=1;marginBottom=0;whiteSpace=wrap;html=1;" vertex="1" parent="1">
          <mxGeometry x="353.5" y="680" width="190" height="90" as="geometry" />
        </mxCell>
        <mxCell id="J0Se5QBbOpBC9-8f7PyO-20" value="user_id - [PK] string" style="text;strokeColor=none;fillColor=none;align=left;verticalAlign=middle;spacingLeft=4;spacingRight=4;overflow=hidden;points=[[0,0.5],[1,0.5]];portConstraint=eastwest;rotatable=0;whiteSpace=wrap;html=1;" vertex="1" parent="J0Se5QBbOpBC9-8f7PyO-19">
          <mxGeometry y="30" width="190" height="30" as="geometry" />
        </mxCell>
        <mxCell id="J0Se5QBbOpBC9-8f7PyO-21" value="notification_id - [PK] integer" style="text;strokeColor=none;fillColor=none;align=left;verticalAlign=middle;spacingLeft=4;spacingRight=4;overflow=hidden;points=[[0,0.5],[1,0.5]];portConstraint=eastwest;rotatable=0;whiteSpace=wrap;html=1;" vertex="1" parent="J0Se5QBbOpBC9-8f7PyO-19">
          <mxGeometry y="60" width="190" height="30" as="geometry" />
        </mxCell>
        <mxCell id="J0Se5QBbOpBC9-8f7PyO-25" style="edgeStyle=orthogonalEdgeStyle;rounded=0;orthogonalLoop=1;jettySize=auto;html=1;exitX=1;exitY=0.5;exitDx=0;exitDy=0;entryX=1;entryY=0.5;entryDx=0;entryDy=0;" edge="1" parent="1" source="J0Se5QBbOpBC9-8f7PyO-20" target="J0Se5QBbOpBC9-8f7PyO-14">
          <mxGeometry relative="1" as="geometry" />
        </mxCell>
        <mxCell id="J0Se5QBbOpBC9-8f7PyO-26" style="edgeStyle=orthogonalEdgeStyle;rounded=0;orthogonalLoop=1;jettySize=auto;html=1;exitX=0;exitY=0.5;exitDx=0;exitDy=0;entryX=0;entryY=0.5;entryDx=0;entryDy=0;" edge="1" parent="1" source="J0Se5QBbOpBC9-8f7PyO-21" target="J0Se5QBbOpBC9-8f7PyO-2">
          <mxGeometry relative="1" as="geometry" />
        </mxCell>
        <mxCell id="J0Se5QBbOpBC9-8f7PyO-28" style="edgeStyle=orthogonalEdgeStyle;rounded=0;orthogonalLoop=1;jettySize=auto;html=1;exitX=0;exitY=0.5;exitDx=0;exitDy=0;entryX=1;entryY=0.5;entryDx=0;entryDy=0;" edge="1" parent="1" source="J0Se5QBbOpBC9-8f7PyO-9" target="J0Se5QBbOpBC9-8f7PyO-2">
          <mxGeometry relative="1" as="geometry" />
        </mxCell>
        <mxCell id="J0Se5QBbOpBC9-8f7PyO-29" value="map between users and the notifciations they want to listen to" style="text;html=1;align=center;verticalAlign=middle;whiteSpace=wrap;rounded=0;" vertex="1" parent="1">
          <mxGeometry x="340" y="650" width="210" height="30" as="geometry" />
        </mxCell>
        <mxCell id="J0Se5QBbOpBC9-8f7PyO-30" value="the time of last notification each user has read" style="text;html=1;align=center;verticalAlign=middle;whiteSpace=wrap;rounded=0;" vertex="1" parent="1">
          <mxGeometry x="580" y="380" width="160" height="30" as="geometry" />
        </mxCell>
        <mxCell id="J0Se5QBbOpBC9-8f7PyO-34" value="&quot;Enum&quot; of each notificiation we have in the app" style="text;html=1;align=center;verticalAlign=middle;whiteSpace=wrap;rounded=0;" vertex="1" parent="1">
          <mxGeometry x="114" y="380" width="160" height="30" as="geometry" />
        </mxCell>
        <mxCell id="J0Se5QBbOpBC9-8f7PyO-35" value="Records of all notifications that already occoured" style="text;html=1;align=center;verticalAlign=middle;whiteSpace=wrap;rounded=0;" vertex="1" parent="1">
          <mxGeometry x="348.25" y="390" width="164.5" height="30" as="geometry" />
        </mxCell>
      </root>
    </mxGraphModel>
  </diagram>
</mxfile>
